<mxfile host="65bd71144e" modified="2021-02-22T16:42:18.094Z" agent="5.0 (Macintosh; Intel Mac OS X 10_15_7) AppleWebKit/537.36 (KHTML, like Gecko) Code/1.53.2 Chrome/87.0.4280.141 Electron/11.2.1 Safari/537.36" etag="jLXiPn0zT-DNwjSj1Bql" version="14.2.4" type="embed">
    <diagram id="D74SX6UnpLPuZyZY2XMV" name="Page-1">
        <mxGraphModel dx="-183" dy="-1306" grid="1" gridSize="10" guides="1" tooltips="1" connect="1" arrows="1" fold="1" page="1" pageScale="1" pageWidth="827" pageHeight="1169" math="0" shadow="0">
            <root>
                <mxCell id="0"/>
                <mxCell id="1" parent="0"/>
                <mxCell id="217" value="" style="rounded=0;whiteSpace=wrap;html=1;strokeColor=#000000;strokeWidth=2;fillColor=none;" vertex="1" parent="1">
                    <mxGeometry x="2120" y="3220" width="1480" height="630" as="geometry"/>
                </mxCell>
                <mxCell id="166" value="" style="group;rounded=1;arcSize=8;strokeColor=#000000;" parent="1" vertex="1" connectable="0">
                    <mxGeometry x="2390" y="3570" width="420" height="186.67" as="geometry"/>
                </mxCell>
                <mxCell id="167" value="" style="outlineConnect=0;dashed=0;verticalLabelPosition=bottom;verticalAlign=top;align=center;html=1;shape=mxgraph.aws3.android;fillColor=#8CC64F;gradientColor=none;rounded=0;" parent="166" vertex="1">
                    <mxGeometry x="41.06666666666667" y="18.666999999999998" width="68.6" height="78.4014" as="geometry"/>
                </mxCell>
                <mxCell id="168" value="&lt;font style=&quot;font-size: 15px&quot;&gt;Node.js&lt;br&gt;&lt;/font&gt;" style="text;html=1;strokeColor=none;fillColor=none;align=center;verticalAlign=middle;whiteSpace=wrap;rounded=0;" parent="166" vertex="1">
                    <mxGeometry x="56.7" y="109.20194999999998" width="37.333333333333336" height="18.666999999999998" as="geometry"/>
                </mxCell>
                <mxCell id="169" value="" style="outlineConnect=0;dashed=0;verticalLabelPosition=bottom;verticalAlign=top;align=center;html=1;shape=mxgraph.aws3.dynamo_db;fillColor=#2E73B8;gradientColor=none;rounded=0;" parent="166" vertex="1">
                    <mxGeometry x="361.2" y="120.40214999999999" width="31.528000000000002" height="35.467299999999994" as="geometry"/>
                </mxCell>
                <mxCell id="170" value="" style="dashed=0;outlineConnect=0;html=1;align=center;labelPosition=center;verticalLabelPosition=bottom;verticalAlign=top;shape=mxgraph.weblogos.mongodb;rounded=0;fillColor=none;" parent="166" vertex="1">
                    <mxGeometry x="322.7466666666666" y="93.335" width="38.45333333333333" height="80.45477" as="geometry"/>
                </mxCell>
                <mxCell id="171" value="MongoDB" style="text;html=1;strokeColor=none;fillColor=none;align=center;verticalAlign=middle;whiteSpace=wrap;rounded=0;" parent="166" vertex="1">
                    <mxGeometry x="361.1999999999998" y="158.66949999999997" width="37.333333333333336" height="18.666999999999998" as="geometry"/>
                </mxCell>
                <mxCell id="172" value="" style="html=1;dashed=0;whitespace=wrap;fillColor=#2875E2;strokeColor=#ffffff;points=[[0.005,0.63,0],[0.1,0.2,0],[0.9,0.2,0],[0.5,0,0],[0.995,0.63,0],[0.72,0.99,0],[0.5,1,0],[0.28,0.99,0]];shape=mxgraph.kubernetes.icon;prIcon=api;rounded=0;" parent="166" vertex="1">
                    <mxGeometry x="160.53333333333333" y="20.533699999999996" width="84" height="69.0679" as="geometry"/>
                </mxCell>
                <mxCell id="173" value="" style="rounded=0;whiteSpace=wrap;html=1;fillColor=none;dashed=1;" parent="166" vertex="1">
                    <mxGeometry x="22.4" y="16.8003" width="277.2" height="130.66899999999998" as="geometry"/>
                </mxCell>
                <mxCell id="174" value="" style="rounded=0;whiteSpace=wrap;html=1;fillColor=none;dashed=1;" parent="166" vertex="1">
                    <mxGeometry x="317.14666666666665" y="16.8003" width="93.52000000000001" height="158.66949999999997" as="geometry"/>
                </mxCell>
                <mxCell id="175" value="API&lt;br&gt;(REST/gRPC)" style="text;html=1;strokeColor=none;fillColor=none;align=center;verticalAlign=middle;whiteSpace=wrap;rounded=0;" parent="166" vertex="1">
                    <mxGeometry x="163.1" y="97.0684" width="78.86666666666667" height="24.2671" as="geometry"/>
                </mxCell>
                <mxCell id="176" value="Data Store" style="text;html=1;strokeColor=none;fillColor=none;align=center;verticalAlign=middle;whiteSpace=wrap;rounded=0;" parent="166" vertex="1">
                    <mxGeometry x="319.9466666666666" y="65.33449999999999" width="93.33333333333333" height="18.666999999999998" as="geometry"/>
                </mxCell>
                <mxCell id="177" value="&lt;span style=&quot;font-size: 15px&quot;&gt;&lt;b&gt;IDENTITY SERVICE&lt;/b&gt;&lt;/span&gt;" style="text;html=1;strokeColor=none;fillColor=none;align=center;verticalAlign=middle;whiteSpace=wrap;rounded=0;" parent="166" vertex="1">
                    <mxGeometry x="15" y="158.67" width="152" height="18.67" as="geometry"/>
                </mxCell>
                <mxCell id="178" value="" style="rounded=1;whiteSpace=wrap;html=1;strokeColor=#3CB2B6;fillColor=#DCE7EF;" parent="1" vertex="1">
                    <mxGeometry x="2480" y="3406.8" width="167.31" height="60" as="geometry"/>
                </mxCell>
                <mxCell id="179" value="" style="html=1;dashed=0;whitespace=wrap;fillColor=#2875E2;strokeColor=#ffffff;points=[[0.005,0.63,0],[0.1,0.2,0],[0.9,0.2,0],[0.5,0,0],[0.995,0.63,0],[0.72,0.99,0],[0.5,1,0],[0.28,0.99,0]];shape=mxgraph.kubernetes.icon;prIcon=node" parent="1" vertex="1">
                    <mxGeometry x="2487" y="3412.8" width="50" height="48" as="geometry"/>
                </mxCell>
                <mxCell id="180" value="&lt;font color=&quot;#555555&quot;&gt;&lt;span style=&quot;font-size: 10px&quot;&gt;Verification&lt;br&gt;Service&lt;br&gt;&lt;/span&gt;&lt;/font&gt;" style="text;html=1;strokeColor=none;fillColor=none;align=center;verticalAlign=middle;whiteSpace=wrap;rounded=0;" parent="1" vertex="1">
                    <mxGeometry x="2569" y="3434.8" width="50" height="20" as="geometry"/>
                </mxCell>
                <mxCell id="181" value="" style="shape=flexArrow;endArrow=classic;html=1;strokeColor=#FFFFFF;fillColor=#cacacb;" parent="1" edge="1">
                    <mxGeometry width="50" height="50" relative="1" as="geometry">
                        <mxPoint x="2598.75" y="3500" as="sourcePoint"/>
                        <mxPoint x="2598.5999999999985" y="3548" as="targetPoint"/>
                    </mxGeometry>
                </mxCell>
                <mxCell id="182" value="" style="group" parent="1" vertex="1" connectable="0">
                    <mxGeometry x="2749.996923076923" y="3362.8159259259255" width="85.99461538461547" height="147.96296296296293" as="geometry"/>
                </mxCell>
                <mxCell id="183" value="" style="group;rounded=1;strokeColor=#666;strokeWidth=3;fillColor=none;" parent="182" vertex="1" connectable="0">
                    <mxGeometry width="85.99461538461547" height="147.96296296296293" as="geometry"/>
                </mxCell>
                <mxCell id="184" value="" style="group" parent="183" vertex="1" connectable="0">
                    <mxGeometry x="1.1676923076924" y="30.750185185185195" width="84.82692307692308" height="104.44444444444444" as="geometry"/>
                </mxCell>
                <mxCell id="185" value="" style="outlineConnect=0;dashed=0;verticalLabelPosition=bottom;verticalAlign=top;align=center;html=1;shape=mxgraph.aws3.dynamo_db;fillColor=#2E73B8;gradientColor=none;rounded=0;" parent="184" vertex="1">
                    <mxGeometry x="43.32307692307696" y="48.74074074074074" width="28.583076923076923" height="33.074074074074076" as="geometry"/>
                </mxCell>
                <mxCell id="186" value="" style="dashed=0;outlineConnect=0;html=1;align=center;labelPosition=center;verticalLabelPosition=bottom;verticalAlign=top;shape=mxgraph.weblogos.mongodb;rounded=0;fillColor=none;" parent="184" vertex="1">
                    <mxGeometry y="26.98148148148148" width="34.861538461538466" height="75.02592592592593" as="geometry"/>
                </mxCell>
                <mxCell id="187" value="MongoDB" style="text;html=1;align=center;verticalAlign=middle;resizable=0;points=[];autosize=1;" parent="184" vertex="1">
                    <mxGeometry x="15.596153846153847" y="88.03703703703704" width="70" height="20" as="geometry"/>
                </mxCell>
                <mxCell id="188" value="Data Store" style="text;html=1;align=center;verticalAlign=middle;resizable=0;points=[];autosize=1;" parent="184" vertex="1">
                    <mxGeometry x="10.940769230769284" width="70" height="20" as="geometry"/>
                </mxCell>
                <mxCell id="189" style="edgeStyle=orthogonalEdgeStyle;rounded=0;orthogonalLoop=1;jettySize=auto;html=1;exitX=1;exitY=0.78;exitDx=0;exitDy=0;exitPerimeter=0;entryX=0.5;entryY=0;entryDx=0;entryDy=0;entryPerimeter=0;strokeColor=#266161;strokeWidth=3;" parent="184" source="185" target="185" edge="1">
                    <mxGeometry relative="1" as="geometry"/>
                </mxCell>
                <mxCell id="190" value="" style="rounded=1;whiteSpace=wrap;html=1;shadow=0;glass=0;comic=0;strokeWidth=2;fillColor=none;arcSize=11;" parent="1" vertex="1">
                    <mxGeometry x="2950.92" y="3323.8" width="137.11" height="200" as="geometry"/>
                </mxCell>
                <mxCell id="191" value="&lt;span style=&quot;font-size: 15px&quot;&gt;Elastic&lt;br&gt;Search&lt;br&gt;Cluster&lt;br&gt;&lt;/span&gt;" style="text;html=1;strokeColor=none;fillColor=none;align=center;verticalAlign=middle;whiteSpace=wrap;rounded=0;shadow=0;glass=0;comic=0;" parent="1" vertex="1">
                    <mxGeometry x="2949.2799999999997" y="3436.8" width="79.5" height="76.77" as="geometry"/>
                </mxCell>
                <mxCell id="192" value="&lt;font style=&quot;font-size: 15px&quot;&gt;Search Service&lt;/font&gt;" style="text;html=1;strokeColor=none;fillColor=none;align=center;verticalAlign=middle;whiteSpace=wrap;rounded=0;shadow=0;glass=0;comic=0;" parent="1" vertex="1">
                    <mxGeometry x="3026.13" y="3325.6000000000004" width="54.75" height="95" as="geometry"/>
                </mxCell>
                <mxCell id="193" value="&lt;font style=&quot;font-size: 14px&quot;&gt;ELK&lt;br&gt;Stack&lt;/font&gt;" style="text;html=1;strokeColor=none;fillColor=none;align=center;verticalAlign=middle;whiteSpace=wrap;rounded=0;shadow=0;glass=0;comic=0;" parent="1" vertex="1">
                    <mxGeometry x="3017" y="3400.8" width="73" height="64" as="geometry"/>
                </mxCell>
                <mxCell id="194" value="" style="shape=image;verticalLabelPosition=bottom;labelBackgroundColor=#ffffff;verticalAlign=top;aspect=fixed;imageAspect=0;image=https://www.elastic.co/static-res/images/elastic-logo-200.png;" parent="1" vertex="1">
                    <mxGeometry x="2957.41" y="3362.8" width="67.25" height="67.25" as="geometry"/>
                </mxCell>
                <mxCell id="195" value="" style="shape=flexArrow;endArrow=classic;html=1;strokeColor=#FFFFFF;fillColor=#cacacb;" parent="1" edge="1">
                    <mxGeometry width="50" height="50" relative="1" as="geometry">
                        <mxPoint x="2861" y="3436.510000000002" as="sourcePoint"/>
                        <mxPoint x="2931" y="3436.510000000002" as="targetPoint"/>
                    </mxGeometry>
                </mxCell>
                <mxCell id="196" value="&lt;font style=&quot;font-size: 100px&quot;&gt;*&lt;/font&gt;" style="text;html=1;strokeColor=none;fillColor=none;align=center;verticalAlign=middle;whiteSpace=wrap;rounded=0;" parent="1" vertex="1">
                    <mxGeometry x="2906.76" y="3301.8" width="40" height="78.2" as="geometry"/>
                </mxCell>
                <mxCell id="197" value="" style="shape=flexArrow;endArrow=classic;html=1;strokeColor=#FFFFFF;fillColor=#cacacb;" parent="1" edge="1">
                    <mxGeometry width="50" height="50" relative="1" as="geometry">
                        <mxPoint x="2296.239999999998" y="3419.720000000001" as="sourcePoint"/>
                        <mxPoint x="2441.119999999999" y="3419.959999999999" as="targetPoint"/>
                    </mxGeometry>
                </mxCell>
                <mxCell id="198" value="" style="shape=flexArrow;endArrow=classic;html=1;strokeColor=#FFFFFF;fillColor=#cacacb;" parent="1" edge="1">
                    <mxGeometry width="50" height="50" relative="1" as="geometry">
                        <mxPoint x="2441.119999999999" y="3452.959999999999" as="sourcePoint"/>
                        <mxPoint x="2296.239999999998" y="3452.869999999999" as="targetPoint"/>
                    </mxGeometry>
                </mxCell>
                <mxCell id="199" value="" style="group" parent="1" vertex="1" connectable="0">
                    <mxGeometry x="2160" y="3356.8000000000006" width="90.79999999999995" height="149.89999999999964" as="geometry"/>
                </mxCell>
                <mxCell id="200" value="" style="shadow=0;dashed=0;html=1;strokeColor=none;fillColor=#4495D1;labelPosition=center;verticalLabelPosition=bottom;verticalAlign=top;align=center;outlineConnect=0;shape=mxgraph.veeam.one_client;rounded=0;" parent="199" vertex="1">
                    <mxGeometry y="88.29999999999973" width="90.8" height="61.6" as="geometry"/>
                </mxCell>
                <mxCell id="201" value="" style="points=[[0.015,0.015,0],[0.985,0.015,0],[0.985,0.985,0],[0.015,0.985,0],[0.25,0,0],[0.5,0,0],[0.75,0,0],[1,0.25,0],[1,0.5,0],[1,0.75,0],[0.75,1,0],[0.5,1,0],[0.25,1,0],[0,0.75,0],[0,0.5,0],[0,0.25,0]];verticalLabelPosition=bottom;html=1;verticalAlign=top;aspect=fixed;align=center;pointerEvents=1;shape=mxgraph.cisco19.cell_phone;fillColor=#005073;strokeColor=none;rounded=0;" parent="199" vertex="1">
                    <mxGeometry x="32.799999999999955" width="25" height="50" as="geometry"/>
                </mxCell>
                <mxCell id="202" value="&lt;font size=&quot;1&quot;&gt;&lt;b style=&quot;font-size: 20px&quot;&gt;Clients&lt;/b&gt;&lt;/font&gt;" style="text;html=1;strokeColor=none;fillColor=none;align=center;verticalAlign=middle;whiteSpace=wrap;rounded=0;" parent="199" vertex="1">
                    <mxGeometry x="9.399999999999977" y="48.29999999999973" width="70" height="48.7" as="geometry"/>
                </mxCell>
                <mxCell id="203" value="" style="shape=flexArrow;endArrow=classic;html=1;strokeColor=#FFFFFF;fillColor=#cacacb;" parent="1" edge="1">
                    <mxGeometry width="50" height="50" relative="1" as="geometry">
                        <mxPoint x="2665" y="3437.7999999999993" as="sourcePoint"/>
                        <mxPoint x="2735" y="3437.7999999999993" as="targetPoint"/>
                    </mxGeometry>
                </mxCell>
                <mxCell id="204" value="" style="dashed=0;outlineConnect=0;html=1;align=center;labelPosition=center;verticalLabelPosition=bottom;verticalAlign=top;shape=mxgraph.weblogos.json_2;rounded=1;strokeColor=#000000;strokeWidth=2;fillColor=none;" parent="1" vertex="1">
                    <mxGeometry x="2323" y="3375" width="80.4" height="25.200000000000003" as="geometry"/>
                </mxCell>
                <mxCell id="205" value="" style="dashed=0;outlineConnect=0;html=1;align=center;labelPosition=center;verticalLabelPosition=bottom;verticalAlign=top;shape=mxgraph.weblogos.json_2;rounded=1;strokeColor=#000000;strokeWidth=2;fillColor=none;" parent="1" vertex="1">
                    <mxGeometry x="2502" y="3506.7" width="80.4" height="25.200000000000003" as="geometry"/>
                </mxCell>
                <mxCell id="216" value="&lt;b&gt;&lt;font style=&quot;font-size: 80px&quot;&gt;SINGLE IDENTITY CHECK&lt;/font&gt;&lt;/b&gt;" style="text;html=1;strokeColor=none;fillColor=none;align=center;verticalAlign=middle;whiteSpace=wrap;rounded=0;" parent="1" vertex="1">
                    <mxGeometry x="3150" y="3242" width="444.81" height="308.86" as="geometry"/>
                </mxCell>
                <mxCell id="218" value="" style="group;rounded=1;arcSize=8;strokeColor=#000000;" vertex="1" connectable="0" parent="1">
                    <mxGeometry x="2920" y="3570" width="420" height="186.67" as="geometry"/>
                </mxCell>
                <mxCell id="219" value="" style="outlineConnect=0;dashed=0;verticalLabelPosition=bottom;verticalAlign=top;align=center;html=1;shape=mxgraph.aws3.android;fillColor=#8CC64F;gradientColor=none;rounded=0;" vertex="1" parent="218">
                    <mxGeometry x="98.66666666666667" y="18.666999999999998" width="68.6" height="78.4014" as="geometry"/>
                </mxCell>
                <mxCell id="220" value="&lt;font style=&quot;font-size: 15px&quot;&gt;Node.js&lt;br&gt;&lt;/font&gt;" style="text;html=1;strokeColor=none;fillColor=none;align=center;verticalAlign=middle;whiteSpace=wrap;rounded=0;" vertex="1" parent="218">
                    <mxGeometry x="114.30000000000001" y="109.20194999999998" width="37.333333333333336" height="18.666999999999998" as="geometry"/>
                </mxCell>
                <mxCell id="221" value="" style="html=1;dashed=0;whitespace=wrap;fillColor=#2875E2;strokeColor=#ffffff;points=[[0.005,0.63,0],[0.1,0.2,0],[0.9,0.2,0],[0.5,0,0],[0.995,0.63,0],[0.72,0.99,0],[0.5,1,0],[0.28,0.99,0]];shape=mxgraph.kubernetes.icon;prIcon=api;rounded=0;" vertex="1" parent="218">
                    <mxGeometry x="218.13333333333333" y="20.533699999999996" width="84" height="69.0679" as="geometry"/>
                </mxCell>
                <mxCell id="222" value="" style="rounded=0;whiteSpace=wrap;html=1;fillColor=none;dashed=1;" vertex="1" parent="218">
                    <mxGeometry x="40" y="16.8" width="340" height="130.67" as="geometry"/>
                </mxCell>
                <mxCell id="223" value="API&lt;br&gt;(REST/gRPC)" style="text;html=1;strokeColor=none;fillColor=none;align=center;verticalAlign=middle;whiteSpace=wrap;rounded=0;" vertex="1" parent="218">
                    <mxGeometry x="220.7" y="97.0684" width="78.86666666666667" height="24.2671" as="geometry"/>
                </mxCell>
                <mxCell id="224" value="&lt;span style=&quot;font-size: 15px&quot;&gt;&lt;b&gt;NOTIFICATION SERVICE&lt;/b&gt;&lt;/span&gt;" style="text;html=1;strokeColor=none;fillColor=none;align=center;verticalAlign=middle;whiteSpace=wrap;rounded=0;" vertex="1" parent="218">
                    <mxGeometry x="31.83" y="158.67" width="187.17" height="18.67" as="geometry"/>
                </mxCell>
                <mxCell id="225" value="" style="shape=flexArrow;endArrow=classic;html=1;strokeColor=#FFFFFF;fillColor=#cacacb;" edge="1" parent="1">
                    <mxGeometry width="50" height="50" relative="1" as="geometry">
                        <mxPoint x="2830" y="3660" as="sourcePoint"/>
                        <mxPoint x="2890" y="3660" as="targetPoint"/>
                    </mxGeometry>
                </mxCell>
                <mxCell id="226" value="" style="dashed=0;outlineConnect=0;html=1;align=center;labelPosition=center;verticalLabelPosition=bottom;verticalAlign=top;shape=mxgraph.weblogos.json_2;rounded=1;strokeColor=#000000;strokeWidth=2;fillColor=none;" vertex="1" parent="1">
                    <mxGeometry x="2824" y="3680" width="80.4" height="25.200000000000003" as="geometry"/>
                </mxCell>
            </root>
        </mxGraphModel>
    </diagram>
</mxfile>